<svg width="24" height="24" viewBox="0 0 24 24" fill="none" xmlns="http://www.w3.org/2000/svg">
<path d="M11.9999 0C5.70927 0 0.549167 4.84047 0.0410156 11H6C6.33329 9.33333 7.99989 6 11.9999 6C16 6 17.6667 9.33333 18 11H23.9589C23.4507 4.84047 18.2906 0 11.9999 0Z" fill="white"/>
<circle cx="12" cy="12" r="4" fill="white"/>
<path d="M0.0410156 13C0.549167 19.1595 5.70928 24 11.9999 24C18.2906 24 23.4507 19.1595 23.9589 13H18C17.6666 14.6667 15.9999 18 11.9999 18C7.99999 18 6.33333 14.6667 6 13H0.0410156Z" fill="white"/>
</svg>
