<svg width="300" height="300" viewBox="0 0 300 300" fill="none" xmlns="http://www.w3.org/2000/svg">
<g clip-path="url(#clip0)">
<path d="M299.249 165C295.805 199.273 280.638 231.494 256.066 256.066C227.936 284.196 189.782 300 150 300C110.218 300 72.0644 284.197 43.934 256.066C19.3615 231.494 4.19488 199.273 0.751404 165C38.6332 165 38.5 165 76.515 165C79.4345 179.302 86.4912 192.557 96.967 203.033C111.032 217.098 130.109 225 150 225C169.891 225 188.968 217.098 203.033 203.033C213.509 192.557 220.565 179.302 223.485 165C261.367 165 261.367 165 299.249 165Z" fill="#F5F5F5"/>
<path d="M150 195C174.853 195 195 174.853 195 150C195 125.147 174.853 105 150 105C125.147 105 105 125.147 105 150C105 174.853 125.147 195 150 195Z" fill="#F5F5F5"/>
<path d="M299.249 135C295.805 100.727 280.638 68.5065 256.066 43.934C227.936 15.8035 189.782 3.00349e-06 150 0C110.218 -3.00349e-06 72.0644 15.8035 43.934 43.934C19.3615 68.5065 4.19488 100.727 0.751404 135C38.6332 135 38.6332 135 76.515 135C79.4345 120.698 86.4912 107.443 96.967 96.967C111.032 82.9018 130.109 75 150 75C169.891 75 188.968 82.9018 203.033 96.967C213.509 107.443 220.565 120.698 223.485 135C261.367 135 261.367 135 299.249 135Z" fill="#F5F5F5"/>
</g>
<defs>
<clipPath id="clip0">
<rect width="300" height="300" fill="white"/>
</clipPath>
</defs>
</svg>